<svg width="362" height="41" viewBox="0 0 362 41" fill="none" xmlns="http://www.w3.org/2000/svg">
<path d="M26.312 6.016C26.184 7.456 26.088 8.848 26.024 10.192C25.992 11.536 25.976 12.576 25.976 13.312C25.976 14.016 25.992 14.688 26.024 15.328C26.056 15.968 26.088 16.512 26.12 16.96H25.016C24.6 14.464 24.024 12.512 23.288 11.104C22.552 9.664 21.64 8.64 20.552 8.032C19.496 7.424 18.232 7.12 16.76 7.12H15.176C14.248 7.12 13.544 7.2 13.064 7.36C12.584 7.52 12.264 7.84 12.104 8.32C11.944 8.8 11.864 9.536 11.864 10.528V34.624C11.864 35.872 11.992 36.8 12.248 37.408C12.504 38.016 13 38.416 13.736 38.608C14.472 38.8 15.56 38.912 17 38.944V40C16.008 39.968 14.728 39.936 13.16 39.904C11.592 39.872 9.944 39.856 8.216 39.856C6.84 39.856 5.496 39.872 4.184 39.904C2.872 39.936 1.688 39.968 0.632 40V39.04C1.656 38.976 2.424 38.848 2.936 38.656C3.448 38.464 3.784 38.08 3.944 37.504C4.136 36.928 4.232 36.064 4.232 34.912V11.104C4.232 9.92 4.136 9.056 3.944 8.512C3.784 7.936 3.432 7.552 2.888 7.36C2.376 7.136 1.624 7.008 0.632 6.976V6.016C1.944 6.048 3.336 6.08 4.808 6.112C6.28 6.112 7.736 6.128 9.176 6.16C10.616 6.16 11.96 6.16 13.208 6.16C14.456 6.16 15.48 6.16 16.28 6.16C17.752 6.16 19.416 6.16 21.272 6.16C23.16 6.128 24.84 6.08 26.312 6.016ZM19.16 22.624C19.16 22.624 19.16 22.784 19.16 23.104C19.16 23.424 19.16 23.584 19.16 23.584H10.424C10.424 23.584 10.424 23.424 10.424 23.104C10.424 22.784 10.424 22.624 10.424 22.624H19.16ZM20.36 16.288C20.232 18.112 20.168 19.504 20.168 20.464C20.2 21.424 20.216 22.304 20.216 23.104C20.216 23.904 20.232 24.784 20.264 25.744C20.296 26.704 20.376 28.096 20.504 29.92H19.4C19.208 28.8 18.904 27.76 18.488 26.8C18.072 25.84 17.464 25.072 16.664 24.496C15.864 23.888 14.824 23.584 13.544 23.584V22.624C14.504 22.624 15.304 22.432 15.944 22.048C16.616 21.632 17.176 21.104 17.624 20.464C18.072 19.792 18.424 19.088 18.68 18.352C18.936 17.616 19.128 16.928 19.256 16.288H20.36ZM45.0703 14.512C46.0943 14.512 46.9263 14.736 47.5663 15.184C48.2063 15.6 48.6703 16.144 48.9583 16.816C49.2783 17.488 49.4383 18.192 49.4383 18.928C49.4383 20.112 49.0863 21.088 48.3823 21.856C47.7103 22.592 46.8143 22.96 45.6943 22.96C44.5743 22.96 43.6943 22.688 43.0543 22.144C42.4463 21.568 42.1423 20.816 42.1423 19.888C42.1423 18.992 42.3343 18.256 42.7183 17.68C43.1343 17.072 43.6463 16.56 44.2543 16.144C43.8063 16.016 43.3583 16.032 42.9103 16.192C42.3023 16.288 41.7263 16.544 41.1823 16.96C40.6383 17.344 40.1743 17.84 39.7903 18.448C39.4063 19.024 39.1023 19.664 38.8783 20.368C38.6543 21.04 38.5423 21.696 38.5423 22.336V35.056C38.5423 36.592 38.9103 37.632 39.6463 38.176C40.4143 38.72 41.5503 38.992 43.0543 38.992V40C42.3183 39.968 41.2463 39.936 39.8383 39.904C38.4303 39.84 36.9583 39.808 35.4223 39.808C34.1423 39.808 32.8463 39.84 31.5343 39.904C30.2223 39.936 29.2303 39.968 28.5583 40V38.992C29.6783 38.992 30.4623 38.752 30.9103 38.272C31.3903 37.792 31.6303 36.88 31.6303 35.536V20.416C31.6303 18.976 31.4063 17.92 30.9583 17.248C30.5423 16.544 29.7423 16.192 28.5583 16.192V15.184C29.5823 15.28 30.5743 15.328 31.5343 15.328C32.8783 15.328 34.1263 15.28 35.2783 15.184C36.4623 15.056 37.5503 14.88 38.5423 14.656V19.12C38.9263 18.256 39.4383 17.472 40.0782 16.768C40.7183 16.064 41.4543 15.52 42.2863 15.136C43.1183 14.72 44.0463 14.512 45.0703 14.512ZM57.5885 40.336C56.1485 40.336 54.9485 40.064 53.9885 39.52C53.0285 38.976 52.3245 38.256 51.8765 37.36C51.4285 36.432 51.2045 35.424 51.2045 34.336C51.2045 32.96 51.5085 31.84 52.1165 30.976C52.7565 30.112 53.5725 29.408 54.5645 28.864C55.5565 28.32 56.5965 27.872 57.6845 27.52C58.8045 27.168 59.8605 26.832 60.8525 26.512C61.8765 26.16 62.6925 25.76 63.3005 25.312C63.9405 24.832 64.2605 24.224 64.2605 23.488V19.744C64.2605 18.912 64.1165 18.176 63.8285 17.536C63.5725 16.864 63.1565 16.352 62.5805 16C62.0365 15.648 61.3165 15.472 60.4205 15.472C59.7805 15.472 59.1405 15.568 58.5005 15.76C57.8605 15.92 57.3325 16.208 56.9165 16.624C57.8125 16.944 58.5005 17.44 58.9805 18.112C59.4925 18.752 59.7485 19.488 59.7485 20.32C59.7485 21.408 59.3645 22.272 58.5965 22.912C57.8605 23.552 56.9805 23.872 55.9565 23.872C54.8045 23.872 53.9245 23.52 53.3165 22.816C52.7405 22.08 52.4525 21.2 52.4525 20.176C52.4525 19.248 52.6765 18.48 53.1245 17.872C53.6045 17.264 54.2605 16.688 55.0925 16.144C55.9885 15.632 57.0605 15.232 58.3085 14.944C59.5885 14.656 60.9645 14.512 62.4365 14.512C63.9085 14.512 65.2365 14.672 66.4205 14.992C67.6045 15.28 68.5965 15.824 69.3965 16.624C70.1325 17.36 70.6125 18.272 70.8365 19.36C71.0605 20.416 71.1725 21.76 71.1725 23.392V36.448C71.1725 37.248 71.2525 37.808 71.4125 38.128C71.5725 38.416 71.8445 38.56 72.2285 38.56C72.5165 38.56 72.7885 38.48 73.0445 38.32C73.3325 38.16 73.6365 37.968 73.9565 37.744L74.4365 38.56C73.7645 39.136 72.9805 39.584 72.0845 39.904C71.2205 40.192 70.2445 40.336 69.1565 40.336C67.9725 40.336 67.0285 40.176 66.3245 39.856C65.6205 39.504 65.1085 39.04 64.7885 38.464C64.5005 37.888 64.3565 37.216 64.3565 36.448C63.5885 37.664 62.6605 38.624 61.5725 39.328C60.4845 40 59.1565 40.336 57.5885 40.336ZM60.9965 37.264C61.6365 37.264 62.2125 37.12 62.7245 36.832C63.2685 36.512 63.7805 36 64.2605 35.296V25.456C63.9725 25.936 63.5725 26.368 63.0605 26.752C62.5485 27.136 62.0045 27.536 61.4285 27.952C60.8525 28.336 60.2925 28.768 59.7485 29.248C59.2365 29.728 58.8205 30.32 58.5005 31.024C58.1805 31.728 58.0205 32.576 58.0205 33.568C58.0205 34.816 58.2925 35.744 58.8365 36.352C59.3805 36.96 60.1005 37.264 60.9965 37.264ZM93.6643 14.512C95.0083 14.512 96.0963 14.688 96.9283 15.04C97.7923 15.36 98.4643 15.808 98.9443 16.384C99.4563 16.992 99.8243 17.776 100.048 18.736C100.304 19.696 100.432 20.992 100.432 22.624V35.536C100.432 36.88 100.656 37.792 101.104 38.272C101.584 38.752 102.384 38.992 103.504 38.992V40C102.896 39.968 101.984 39.936 100.768 39.904C99.5523 39.84 98.3523 39.808 97.1683 39.808C95.9523 39.808 94.7523 39.84 93.5683 39.904C92.4163 39.936 91.5363 39.968 90.9283 40V38.992C91.8883 38.992 92.5603 38.752 92.9443 38.272C93.3283 37.792 93.5203 36.88 93.5203 35.536V20.608C93.5203 19.808 93.4403 19.12 93.2803 18.544C93.1203 17.936 92.8323 17.472 92.4163 17.152C92.0003 16.8 91.3763 16.624 90.5443 16.624C89.6803 16.624 88.8803 16.864 88.1443 17.344C87.4403 17.824 86.8643 18.496 86.4163 19.36C86.0003 20.192 85.7923 21.136 85.7923 22.192V35.536C85.7923 36.88 85.9843 37.792 86.3683 38.272C86.7843 38.752 87.4563 38.992 88.3843 38.992V40C87.8083 39.968 86.9603 39.936 85.8403 39.904C84.7523 39.84 83.6163 39.808 82.4323 39.808C81.2163 39.808 79.9683 39.84 78.6883 39.904C77.4083 39.936 76.4483 39.968 75.8083 40V38.992C76.9283 38.992 77.7123 38.752 78.1603 38.272C78.6403 37.792 78.8803 36.88 78.8803 35.536V20.416C78.8803 18.976 78.6563 17.92 78.2083 17.248C77.7923 16.544 76.9923 16.192 75.8083 16.192V15.184C76.8323 15.28 77.8243 15.328 78.7843 15.328C80.1283 15.328 81.3763 15.28 82.5283 15.184C83.7123 15.056 84.8003 14.88 85.7923 14.656V18.976C86.5923 17.344 87.6803 16.192 89.0563 15.52C90.4323 14.848 91.9683 14.512 93.6643 14.512ZM117.773 14.512C119.021 14.512 120.157 14.656 121.181 14.944C122.237 15.2 123.101 15.536 123.773 15.952C124.605 16.464 125.245 17.104 125.693 17.872C126.173 18.608 126.413 19.472 126.413 20.464C126.413 21.584 126.061 22.512 125.357 23.248C124.653 23.952 123.741 24.304 122.621 24.304C121.501 24.304 120.605 23.984 119.933 23.344C119.261 22.704 118.925 21.84 118.925 20.752C118.925 19.728 119.245 18.88 119.885 18.208C120.525 17.504 121.261 17.04 122.093 16.816C121.837 16.496 121.453 16.224 120.941 16C120.429 15.776 119.853 15.664 119.213 15.664C118.221 15.664 117.341 15.952 116.573 16.528C115.837 17.104 115.213 17.904 114.701 18.928C114.189 19.952 113.789 21.152 113.501 22.528C113.245 23.904 113.117 25.408 113.117 27.04C113.117 29.504 113.421 31.44 114.029 32.848C114.669 34.256 115.469 35.248 116.429 35.824C117.421 36.4 118.445 36.688 119.501 36.688C120.109 36.688 120.765 36.592 121.469 36.4C122.205 36.208 122.941 35.824 123.677 35.248C124.445 34.672 125.149 33.856 125.789 32.8L126.605 33.088C126.253 34.272 125.677 35.456 124.877 36.64C124.077 37.824 123.037 38.8 121.757 39.568C120.477 40.304 118.909 40.672 117.053 40.672C114.973 40.672 113.085 40.224 111.389 39.328C109.725 38.4 108.381 36.992 107.357 35.104C106.365 33.184 105.869 30.72 105.869 27.712C105.869 24.832 106.381 22.416 107.405 20.464C108.461 18.48 109.885 16.992 111.677 16C113.469 15.008 115.501 14.512 117.773 14.512ZM135.345 2.8C136.689 2.8 137.745 3.136 138.513 3.808C139.313 4.448 139.713 5.344 139.713 6.496C139.713 7.648 139.313 8.56 138.513 9.232C137.745 9.872 136.689 10.192 135.345 10.192C134.001 10.192 132.929 9.872 132.129 9.232C131.361 8.56 130.977 7.648 130.977 6.496C130.977 5.344 131.361 4.448 132.129 3.808C132.929 3.136 134.001 2.8 135.345 2.8ZM139.089 14.656V35.536C139.089 36.88 139.313 37.792 139.761 38.272C140.241 38.752 141.041 38.992 142.161 38.992V40C141.585 39.968 140.689 39.936 139.473 39.904C138.257 39.84 137.025 39.808 135.777 39.808C134.529 39.808 133.265 39.84 131.985 39.904C130.705 39.936 129.745 39.968 129.105 40V38.992C130.225 38.992 131.009 38.752 131.457 38.272C131.937 37.792 132.177 36.88 132.177 35.536V20.416C132.177 18.976 131.953 17.92 131.505 17.248C131.089 16.544 130.289 16.192 129.105 16.192V15.184C130.129 15.28 131.121 15.328 132.081 15.328C133.425 15.328 134.673 15.28 135.825 15.184C137.009 15.056 138.097 14.88 139.089 14.656ZM156.63 14.512C159.446 14.512 161.654 15.344 163.254 17.008C164.854 18.672 165.654 21.392 165.654 25.168H149.862L149.766 24.256H159.606C159.638 22.688 159.542 21.248 159.318 19.936C159.094 18.592 158.742 17.52 158.262 16.72C157.782 15.92 157.142 15.52 156.342 15.52C155.222 15.52 154.262 16.224 153.462 17.632C152.694 19.04 152.23 21.376 152.07 24.64L152.214 24.928C152.182 25.312 152.15 25.712 152.118 26.128C152.118 26.544 152.118 26.976 152.118 27.424C152.118 29.632 152.422 31.424 153.03 32.8C153.67 34.176 154.47 35.184 155.43 35.824C156.39 36.432 157.366 36.736 158.358 36.736C159.03 36.736 159.718 36.64 160.422 36.448C161.158 36.224 161.894 35.84 162.63 35.296C163.366 34.72 164.054 33.92 164.694 32.896L165.558 33.184C165.174 34.4 164.566 35.584 163.734 36.736C162.902 37.888 161.846 38.832 160.566 39.568C159.286 40.304 157.75 40.672 155.958 40.672C153.782 40.672 151.862 40.208 150.198 39.28C148.534 38.352 147.222 36.944 146.262 35.056C145.334 33.168 144.87 30.768 144.87 27.856C144.87 24.88 145.366 22.4 146.358 20.416C147.382 18.432 148.774 16.96 150.534 16C152.326 15.008 154.358 14.512 156.63 14.512ZM161.574 0.783998C162.118 1.2 162.406 1.776 162.438 2.512C162.47 3.248 162.23 3.936 161.718 4.576C161.206 5.216 160.582 5.792 159.846 6.304C159.11 6.816 158.23 7.44 157.206 8.176C156.214 8.912 155.014 9.936 153.606 11.248L153.078 10.816C154.038 9.088 154.742 7.648 155.19 6.496C155.638 5.312 156.022 4.304 156.342 3.472C156.662 2.64 157.094 1.92 157.638 1.312C158.118 0.671998 158.742 0.303998 159.51 0.207997C160.31 0.0799971 160.998 0.271997 161.574 0.783998ZM178.225 2.416V35.536C178.225 36.88 178.449 37.792 178.897 38.272C179.377 38.752 180.177 38.992 181.297 38.992V40C180.689 39.968 179.777 39.936 178.561 39.904C177.345 39.84 176.113 39.808 174.865 39.808C173.617 39.808 172.353 39.84 171.073 39.904C169.825 39.936 168.881 39.968 168.241 40V38.992C169.361 38.992 170.145 38.752 170.593 38.272C171.073 37.792 171.313 36.88 171.313 35.536V8.176C171.313 6.736 171.089 5.68 170.641 5.008C170.225 4.304 169.425 3.952 168.241 3.952V2.944C169.265 3.04 170.257 3.088 171.217 3.088C172.529 3.088 173.777 3.04 174.961 2.944C176.145 2.816 177.233 2.64 178.225 2.416ZM195.255 14.512C198.071 14.512 200.279 15.344 201.879 17.008C203.479 18.672 204.279 21.392 204.279 25.168H188.487L188.391 24.256H198.231C198.263 22.688 198.167 21.248 197.943 19.936C197.719 18.592 197.367 17.52 196.887 16.72C196.407 15.92 195.767 15.52 194.967 15.52C193.847 15.52 192.887 16.224 192.087 17.632C191.319 19.04 190.855 21.376 190.695 24.64L190.839 24.928C190.807 25.312 190.775 25.712 190.743 26.128C190.743 26.544 190.743 26.976 190.743 27.424C190.743 29.632 191.047 31.424 191.655 32.8C192.295 34.176 193.095 35.184 194.055 35.824C195.015 36.432 195.991 36.736 196.983 36.736C197.655 36.736 198.343 36.64 199.047 36.448C199.783 36.224 200.519 35.84 201.255 35.296C201.991 34.72 202.679 33.92 203.319 32.896L204.183 33.184C203.799 34.4 203.191 35.584 202.359 36.736C201.527 37.888 200.471 38.832 199.191 39.568C197.911 40.304 196.375 40.672 194.583 40.672C192.407 40.672 190.487 40.208 188.823 39.28C187.159 38.352 185.847 36.944 184.887 35.056C183.959 33.168 183.495 30.768 183.495 27.856C183.495 24.88 183.991 22.4 184.983 20.416C186.007 18.432 187.399 16.96 189.159 16C190.951 15.008 192.983 14.512 195.255 14.512ZM232.898 5.92L244.562 35.968C245.01 37.12 245.506 37.92 246.05 38.368C246.626 38.784 247.138 39.008 247.586 39.04V40C246.626 39.936 245.49 39.904 244.178 39.904C242.898 39.872 241.602 39.856 240.29 39.856C238.818 39.856 237.426 39.872 236.114 39.904C234.802 39.904 233.762 39.936 232.994 40V39.04C234.626 38.976 235.65 38.704 236.066 38.224C236.514 37.712 236.418 36.64 235.778 35.008L227.618 12.688L228.482 11.44L221.186 30.448C220.482 32.208 220.05 33.648 219.89 34.768C219.762 35.888 219.842 36.752 220.13 37.36C220.45 37.968 220.946 38.4 221.618 38.656C222.322 38.88 223.154 39.008 224.114 39.04V40C223.058 39.936 222.05 39.904 221.09 39.904C220.13 39.872 219.154 39.856 218.162 39.856C217.458 39.856 216.786 39.872 216.146 39.904C215.538 39.904 214.994 39.936 214.514 40V39.04C215.186 38.912 215.874 38.48 216.578 37.744C217.282 37.008 217.97 35.76 218.642 34L229.586 5.92C230.098 5.952 230.642 5.968 231.218 5.968C231.826 5.968 232.386 5.952 232.898 5.92ZM236.258 26.176V27.136H221.954L222.434 26.176H236.258ZM271.586 15.184V16.144C270.978 16.304 270.402 16.688 269.858 17.296C269.314 17.872 268.786 18.864 268.274 20.272L261.266 40.096C260.754 40.064 260.226 40.048 259.682 40.048C259.17 40.048 258.658 40.064 258.146 40.096L249.602 18.88C249.09 17.632 248.578 16.88 248.066 16.624C247.586 16.336 247.17 16.192 246.818 16.192V15.184C247.842 15.248 248.898 15.312 249.986 15.376C251.106 15.408 252.322 15.424 253.634 15.424C254.626 15.424 255.666 15.408 256.754 15.376C257.874 15.312 258.914 15.248 259.874 15.184V16.192C259.202 16.192 258.594 16.224 258.05 16.288C257.538 16.352 257.186 16.56 256.994 16.912C256.802 17.264 256.834 17.888 257.09 18.784L262.706 33.664L262.226 34.336L266.018 23.824C266.626 22.096 266.882 20.688 266.786 19.6C266.69 18.48 266.338 17.648 265.73 17.104C265.122 16.528 264.306 16.208 263.282 16.144V15.184C263.762 15.216 264.274 15.248 264.818 15.28C265.394 15.28 265.938 15.296 266.45 15.328C266.994 15.328 267.474 15.328 267.89 15.328C268.53 15.328 269.202 15.312 269.906 15.28C270.61 15.248 271.17 15.216 271.586 15.184ZM279.017 2.8C280.361 2.8 281.417 3.136 282.185 3.808C282.985 4.448 283.385 5.344 283.385 6.496C283.385 7.648 282.985 8.56 282.185 9.232C281.417 9.872 280.361 10.192 279.017 10.192C277.673 10.192 276.601 9.872 275.801 9.232C275.033 8.56 274.649 7.648 274.649 6.496C274.649 5.344 275.033 4.448 275.801 3.808C276.601 3.136 277.673 2.8 279.017 2.8ZM282.761 14.656V35.536C282.761 36.88 282.985 37.792 283.433 38.272C283.913 38.752 284.713 38.992 285.833 38.992V40C285.257 39.968 284.361 39.936 283.145 39.904C281.929 39.84 280.697 39.808 279.449 39.808C278.201 39.808 276.937 39.84 275.657 39.904C274.377 39.936 273.417 39.968 272.777 40V38.992C273.897 38.992 274.681 38.752 275.129 38.272C275.609 37.792 275.849 36.88 275.849 35.536V20.416C275.849 18.976 275.625 17.92 275.177 17.248C274.761 16.544 273.961 16.192 272.777 16.192V15.184C273.801 15.28 274.793 15.328 275.753 15.328C277.097 15.328 278.345 15.28 279.497 15.184C280.681 15.056 281.769 14.88 282.761 14.656ZM304.382 14.512C306.878 14.512 308.942 15.536 310.574 17.584C312.238 19.6 313.07 22.72 313.07 26.944C313.07 30.272 312.558 32.944 311.534 34.96C310.542 36.976 309.214 38.432 307.55 39.328C305.886 40.224 304.062 40.672 302.078 40.672C300.766 40.672 299.55 40.448 298.43 40C297.31 39.552 296.35 38.816 295.55 37.792L296.222 37.552C296.798 38.256 297.47 38.784 298.238 39.136C299.038 39.488 299.822 39.664 300.59 39.664C302.35 39.664 303.662 38.672 304.526 36.688C305.39 34.704 305.822 31.68 305.822 27.616C305.822 24.864 305.646 22.688 305.294 21.088C304.974 19.456 304.494 18.304 303.854 17.632C303.214 16.928 302.446 16.576 301.55 16.576C300.43 16.576 299.406 17.04 298.478 17.968C297.55 18.864 297.022 20.128 296.894 21.76L296.654 20.08C297.23 18.256 298.206 16.88 299.582 15.952C300.958 14.992 302.558 14.512 304.382 14.512ZM297.038 2.464V39.04C296.238 38.912 295.422 38.912 294.59 39.04C293.758 39.168 292.99 39.392 292.286 39.712C291.582 40 290.99 40.352 290.51 40.768L289.79 40.336C289.918 39.888 289.998 39.44 290.03 38.992C290.094 38.544 290.126 38.096 290.126 37.648V8.224C290.126 6.784 289.902 5.728 289.454 5.056C289.038 4.352 288.238 4 287.054 4V2.992C288.078 3.088 289.07 3.136 290.03 3.136C291.342 3.136 292.59 3.088 293.774 2.992C294.958 2.864 296.046 2.688 297.038 2.464ZM322.667 40.336C321.227 40.336 320.027 40.064 319.067 39.52C318.107 38.976 317.403 38.256 316.955 37.36C316.507 36.432 316.283 35.424 316.283 34.336C316.283 32.96 316.587 31.84 317.195 30.976C317.835 30.112 318.651 29.408 319.643 28.864C320.635 28.32 321.675 27.872 322.763 27.52C323.883 27.168 324.939 26.832 325.931 26.512C326.955 26.16 327.771 25.76 328.379 25.312C329.019 24.832 329.339 24.224 329.339 23.488V19.744C329.339 18.912 329.195 18.176 328.907 17.536C328.651 16.864 328.235 16.352 327.659 16C327.115 15.648 326.395 15.472 325.499 15.472C324.859 15.472 324.219 15.568 323.579 15.76C322.939 15.92 322.411 16.208 321.995 16.624C322.891 16.944 323.579 17.44 324.059 18.112C324.571 18.752 324.827 19.488 324.827 20.32C324.827 21.408 324.443 22.272 323.675 22.912C322.939 23.552 322.059 23.872 321.035 23.872C319.883 23.872 319.003 23.52 318.395 22.816C317.819 22.08 317.531 21.2 317.531 20.176C317.531 19.248 317.755 18.48 318.203 17.872C318.683 17.264 319.339 16.688 320.171 16.144C321.067 15.632 322.139 15.232 323.387 14.944C324.667 14.656 326.043 14.512 327.515 14.512C328.987 14.512 330.315 14.672 331.499 14.992C332.683 15.28 333.675 15.824 334.475 16.624C335.211 17.36 335.691 18.272 335.915 19.36C336.139 20.416 336.251 21.76 336.251 23.392V36.448C336.251 37.248 336.331 37.808 336.491 38.128C336.651 38.416 336.923 38.56 337.307 38.56C337.595 38.56 337.867 38.48 338.123 38.32C338.411 38.16 338.715 37.968 339.035 37.744L339.515 38.56C338.843 39.136 338.059 39.584 337.163 39.904C336.299 40.192 335.323 40.336 334.235 40.336C333.051 40.336 332.107 40.176 331.403 39.856C330.699 39.504 330.187 39.04 329.867 38.464C329.579 37.888 329.435 37.216 329.435 36.448C328.667 37.664 327.739 38.624 326.651 39.328C325.563 40 324.235 40.336 322.667 40.336ZM326.075 37.264C326.715 37.264 327.291 37.12 327.803 36.832C328.347 36.512 328.859 36 329.339 35.296V25.456C329.051 25.936 328.651 26.368 328.139 26.752C327.627 27.136 327.083 27.536 326.507 27.952C325.931 28.336 325.371 28.768 324.827 29.248C324.315 29.728 323.899 30.32 323.579 31.024C323.259 31.728 323.099 32.576 323.099 33.568C323.099 34.816 323.371 35.744 323.915 36.352C324.459 36.96 325.179 37.264 326.075 37.264ZM357.398 14.512C358.422 14.512 359.254 14.736 359.894 15.184C360.534 15.6 360.998 16.144 361.286 16.816C361.606 17.488 361.766 18.192 361.766 18.928C361.766 20.112 361.414 21.088 360.71 21.856C360.038 22.592 359.142 22.96 358.022 22.96C356.902 22.96 356.022 22.688 355.382 22.144C354.774 21.568 354.47 20.816 354.47 19.888C354.47 18.992 354.662 18.256 355.046 17.68C355.462 17.072 355.974 16.56 356.582 16.144C356.134 16.016 355.686 16.032 355.238 16.192C354.63 16.288 354.054 16.544 353.51 16.96C352.966 17.344 352.502 17.84 352.118 18.448C351.734 19.024 351.43 19.664 351.206 20.368C350.982 21.04 350.87 21.696 350.87 22.336V35.056C350.87 36.592 351.238 37.632 351.974 38.176C352.742 38.72 353.878 38.992 355.382 38.992V40C354.646 39.968 353.574 39.936 352.166 39.904C350.758 39.84 349.286 39.808 347.75 39.808C346.47 39.808 345.174 39.84 343.862 39.904C342.55 39.936 341.558 39.968 340.886 40V38.992C342.006 38.992 342.79 38.752 343.238 38.272C343.718 37.792 343.958 36.88 343.958 35.536V20.416C343.958 18.976 343.734 17.92 343.286 17.248C342.87 16.544 342.07 16.192 340.886 16.192V15.184C341.91 15.28 342.902 15.328 343.862 15.328C345.206 15.328 346.454 15.28 347.606 15.184C348.79 15.056 349.878 14.88 350.87 14.656V19.12C351.254 18.256 351.766 17.472 352.406 16.768C353.046 16.064 353.782 15.52 354.614 15.136C355.446 14.72 356.374 14.512 357.398 14.512Z" fill="#141414"/>
</svg>
